<?xml version="1.0" encoding="utf-8"?>
<!-- Generator: Adobe Illustrator 19.0.0, SVG Export Plug-In . SVG Version: 6.00 Build 0)  -->
<svg version="1.2" baseProfile="tiny" id="Layer_1" xmlns="http://www.w3.org/2000/svg" xmlns:xlink="http://www.w3.org/1999/xlink"
	 x="0px" y="0px" viewBox="-443 317 72 72" xml:space="preserve">
<g>
	<path d="M-400.9,368.8C-400.8,368.8-400.8,368.8-400.9,368.8c0.8,0,1.4-0.3,1.8-0.9c0.5-0.9,0.3-2.2-0.7-2.8l-5.8-3.8v-9.9
		c0-1.1-0.9-2-2-2l0,0c-1.1,0-1.9,0.9-1.9,2v12.2l7.7,4.9C-401.6,368.7-401.3,368.8-400.9,368.8z"/>
	<path d="M-407.1,376.5c9.1,0,16.4-7.3,16.4-16.4c0-9.1-7.3-16.4-16.4-16.4c-9.1,0-16.4,7.3-16.4,16.4
		C-423.5,369.2-416.2,376.5-407.1,376.5z M-420.1,360.1c0-7.2,5.8-13,13-13c7.2,0,13,5.8,13,13l0,0c-0.1,7.2-5.8,13-13,13
		C-414.3,373.1-420.1,367.2-420.1,360.1L-420.1,360.1z"/>
	<path d="M-383.2,323h-47.6c-3.5,0-6.3,2.8-6.3,6.2v47.6c0,3.4,2.8,6.2,6.3,6.2h41.9c0.1,0,0.2,0,0.2,0h0.2c0,0,0.1,0,0.1-0.1
		c0,0,0.1,0,0.1-0.1l0.1-0.1c0,0,0.1,0,0.1-0.1l10.9-10.7c0.1-0.1,0.1-0.2,0.2-0.2c0,0,0,0,0-0.1c0.1-0.2,0.1-0.3,0.1-0.5v-41.9
		C-377,325.8-379.7,323-383.2,323z M-379.1,370.2h-9.8c-0.6,0-1.1,0.5-1.1,1.1v9.6h-40.8c-1.2,0-2.2-0.5-2.9-1.2
		c-0.8-0.7-1.2-1.8-1.2-2.8v-37.3h55.8L-379.1,370.2L-379.1,370.2z"/>
</g>
<rect x="-443" y="317" fill="none" width="72" height="72"/>
</svg>
