<?xml version="1.0" encoding="utf-8"?>
<!-- Generator: Adobe Illustrator 19.0.0, SVG Export Plug-In . SVG Version: 6.00 Build 0)  -->
<svg version="1.1" id="Layer_1" xmlns="http://www.w3.org/2000/svg" xmlns:xlink="http://www.w3.org/1999/xlink" x="0px" y="0px"
	 viewBox="-443 245 72 72" style="enable-background:new -443 245 72 72;" xml:space="preserve">
<rect x="-443" y="245" fill="none" width="72" height="72"/>
<path d="M-407,249c-17.7,0-32,14.3-32,32s14.3,32,32,32s32-14.3,32-32S-389.3,249-407,249z M-397.6,266.6c-1.9,0-4.1,0-5,0
	c-1,0-1.9,1-1.9,1.7c0,0.7,0,5.1,0,5.1s6.3,0,7.1,0c-0.3,4-0.9,7.6-0.9,7.6h-6.2v22.3h-9.2V281h-4.6v-7.5h4.6c0,0,0-5,0-6.1
	s-0.2-8.6,9.5-8.6c1.3,0,4.3,0,6.9,0C-397.6,262-397.6,265.6-397.6,266.6z"/>
</svg>
