<?xml version="1.0" encoding="utf-8"?>
<!-- Generator: Adobe Illustrator 19.0.0, SVG Export Plug-In . SVG Version: 6.00 Build 0)  -->
<svg version="1.1" id="Layer_1" xmlns="http://www.w3.org/2000/svg" xmlns:xlink="http://www.w3.org/1999/xlink" x="0px" y="0px"
	 viewBox="-443 245 72 72" style="enable-background:new -443 245 72 72;" xml:space="preserve">
<rect x="-443" y="245" fill="none" width="72" height="72"/>
<path d="M-407,249c-17.7,0-32,14.3-32,32s14.3,32,32,32s32-14.3,32-32S-389.3,249-407,249z M-398.3,281c0,8.8-7.2,16.2-16.2,16.2
	c-8.8,0-16.2-7.2-16.2-16.2s7.2-16.2,16.2-16.2c3.5,0,7,1.2,9.8,3.3l-3.8,4.8c-1.8-1.3-3.9-2.1-6.1-2.1c-5.5,0-10,4.5-10,10
	s4.5,10,10,10c4.5,0,8.1-2.9,9.4-7h-9.4v-6.1h16.2v3.2H-398.3z M-381.3,283h-4.6v4.6h-4V283h-4.6v-4h4.6v-4.6h4v4.6h4.6V283z"/>
</svg>
