<?xml version="1.0" encoding="utf-8"?>
<!-- Generator: Adobe Illustrator 19.0.0, SVG Export Plug-In . SVG Version: 6.00 Build 0)  -->
<svg version="1.2" baseProfile="tiny" id="Layer_1" xmlns="http://www.w3.org/2000/svg" xmlns:xlink="http://www.w3.org/1999/xlink"
	 x="0px" y="0px" viewBox="-443 317 72 72" xml:space="preserve">
<path d="M-407,318c-19.3,0-35,15.7-35,35s15.7,35,35,35c19.3,0,35-15.7,35-35S-387.8,318-407,318z M-407,385.7
	c-18,0-32.7-14.7-32.7-32.7s14.7-32.7,32.7-32.7s32.7,14.7,32.7,32.7S-389,385.7-407,385.7z M-407,337.9c2.3,0,4.4-1.9,4.4-4.4
	c0-2.3-2-4.3-4.3-4.3c-2.3,0-4.4,1.9-4.4,4.3C-411.4,336-409.4,337.9-407,337.9z M-403.3,344.2h-10.9v5.2h4.9v19.8h-4.9v5.1h15.7
	v-5.1h-4.8V344.2z"/>
<rect x="-443" y="317" fill="none" width="72" height="72"/>
</svg>
