<?xml version="1.0" encoding="utf-8"?>
<!-- Generator: Adobe Illustrator 19.0.0, SVG Export Plug-In . SVG Version: 6.00 Build 0)  -->
<svg version="1.1" id="Layer_1" xmlns="http://www.w3.org/2000/svg" xmlns:xlink="http://www.w3.org/1999/xlink" x="0px" y="0px"
	 viewBox="-443 245 72 72" style="enable-background:new -443 245 72 72;" xml:space="preserve">
<rect x="-443" y="245" fill="none" width="72" height="72"/>
<path d="M-407,249c-17.7,0-32,14.3-32,32s14.3,32,32,32s32-14.3,32-32S-389.3,249-407,249z M-425.1,266.1h37.2
	c1.6,0,1.9,0.7,0.6,1.7l-16.5,12.1c-0.7,0.5-1.7,0.7-2.8,0.7c-1,0-2-0.2-2.8-0.7l-16.5-12.1C-427,266.9-426.7,266.1-425.1,266.1z
	 M-386.7,292.5h-39.6c-1.6,0-3.1-1.3-3.1-2.9v-17.4c0-1.6,1.1-2,2.5-1.2l18,12.6c0.7,0.4,1.5,0.7,2.5,0.6c0.9,0,1.7-0.2,2.5-0.6
	l18-12.6c1.3-1,2.5-0.4,2.5,1.2v17.4C-383.6,291.2-385,292.5-386.7,292.5z"/>
</svg>
