<?xml version="1.0" encoding="utf-8"?>
<!-- Generator: Adobe Illustrator 19.0.0, SVG Export Plug-In . SVG Version: 6.00 Build 0)  -->
<svg version="1.2" baseProfile="tiny" id="Layer_1" xmlns="http://www.w3.org/2000/svg" xmlns:xlink="http://www.w3.org/1999/xlink"
	 x="0px" y="0px" viewBox="-464.5 317 72 72" xml:space="preserve">
<path d="M-428.4,321h-0.2c-12.4,0-22.6,10.1-22.6,22.6c0,8.3,6.5,20,12.2,28.6l2.7,3.9c3.1,4.5,5.6,7.6,6,8c0.4,0.5,1.1,0.9,1.8,0.9
	h0.2c0.7,0,1.3-0.4,1.8-0.9c0.3-0.4,2.8-3.5,6-8l2.7-3.9c5.7-8.7,12.2-20.4,12.2-28.6C-405.8,331.1-416,321-428.4,321z
	 M-418.9,353.3h-19.2v-19.4h19.2V353.3z"/>
<rect x="-464.5" y="317" fill="none" width="72" height="72"/>
</svg>
