<?xml version="1.0" encoding="utf-8"?>
<!-- Generator: Adobe Illustrator 19.0.0, SVG Export Plug-In . SVG Version: 6.00 Build 0)  -->
<svg version="1.1" id="Layer_1" xmlns="http://www.w3.org/2000/svg" xmlns:xlink="http://www.w3.org/1999/xlink" x="0px" y="0px"
     viewBox="-443 245 72 72" style="enable-background:new -443 245 72 72;" xml:space="preserve">
<path d="M-435.5,309.6c1,1,2.4,1.5,3.7,1.5c1.4,0,2.7-0.5,3.7-1.5l18.3-18.3l9.5,9.5c0.9,0.9,2.4,1.5,3.7,1.5c0.4,0,0.8-0.1,1.2-0.2
	c1.8-0.3,3.2-1.6,3.8-3.3l14.3-40.7c0.6-1.9,0.2-4-1.2-5.5c-1.4-1.4-3.6-1.9-5.5-1.2l-40.8,14.3c-1.6,0.5-2.9,2-3.3,3.7
	c-0.4,1.7,0.1,3.6,1.4,4.8l9.5,9.5l-18.3,18.3C-437.5,304-437.5,307.3-435.5,309.6z M-398.7,287.3l-14.6-14.6l22.5-7.9L-398.7,287.3
	z"/>
<rect x="-443" y="245" fill="none" width="72" height="72"/>
</svg>
