<?xml version="1.0" encoding="utf-8"?>
<!-- Generator: Adobe Illustrator 19.0.0, SVG Export Plug-In . SVG Version: 6.00 Build 0)  -->
<svg version="1.1" id="Layer_1" xmlns="http://www.w3.org/2000/svg" xmlns:xlink="http://www.w3.org/1999/xlink" x="0px" y="0px"
	 viewBox="-443 245 72 72" style="enable-background:new -443 245 72 72;" xml:space="preserve">
<rect x="-443" y="245" fill="none" width="72" height="72"/>
<path d="M-421.1,304.5h28v-3.6h-28V304.5z M-421.1,297.2h28v-3.5h-28V297.2z M-380,270.3h-3.2v-8.7c0-2.1-1.2-3.1-3.4-3.1h-40.6
	c-2.1,0-3.4,1-3.4,3.1v8.7h-3.4c-2.1,0-3,1.7-3,3.9v21.6c0,2.1,0.8,3.1,3,3.1h9v-10.1h35.9v10.1h9.1c2.2,0,3-1,3-3.1v-21.5
	C-377,272-377.8,270.3-380,270.3z M-386.6,270.3h-40.6v-8.4h40.6V270.3z"/>
</svg>
