<?xml version="1.0" encoding="utf-8"?>
<!-- Generator: Adobe Illustrator 19.0.0, SVG Export Plug-In . SVG Version: 6.00 Build 0)  -->
<svg version="1.2" baseProfile="tiny" id="Layer_1" xmlns="http://www.w3.org/2000/svg" xmlns:xlink="http://www.w3.org/1999/xlink"
	 x="0px" y="0px" viewBox="-473.1 317 72 72" xml:space="preserve">
<path d="M-423.9,318h-26.5c-3.9,0-7,3.1-7,7v56c0,3.9,3.1,7,7,7h26.5c3.9,0,7-3.1,7-7v-56C-416.9,321.1-420,318-423.9,318z
	 M-434.9,384.6h-4.3c-0.6,0-1.1-0.5-1.1-1.1s0.5-1.1,1.1-1.1h4.3c0.6,0,1.1,0.5,1.1,1.1C-433.8,384.1-434.3,384.6-434.9,384.6z
	 M-419.1,374.5c0,2.6-2.1,4.8-4.8,4.8h-26.5c-2.6,0-4.8-2.1-4.8-4.8v-45.7c0-2.6,2.1-4.8,4.8-4.8h26.5c2.6,0,4.8,2.1,4.8,4.8V374.5z
	 M-445.3,353h-3.5c-1,0-1.7,0.8-1.7,1.7c0,1,0.8,1.7,1.7,1.7h3.5c1,0,1.7-0.8,1.7-1.7C-443.6,353.7-444.4,353-445.3,353z
	 M-445.3,360.5h-3.5c-1,0-1.7,0.8-1.7,1.7c0,1,0.8,1.7,1.7,1.7h3.5c1,0,1.7-0.8,1.7-1.7S-444.4,360.5-445.3,360.5z M-425.5,353h-3.5
	c-1,0-1.7,0.8-1.7,1.7c0,1,0.8,1.7,1.7,1.7h3.5c1,0,1.7-0.8,1.7-1.7C-423.9,353.7-424.7,353-425.5,353z M-425.5,360.5h-3.5
	c-1,0-1.7,0.8-1.7,1.7c0,1,0.8,1.7,1.7,1.7h3.5c1,0,1.7-0.8,1.7-1.7S-424.7,360.5-425.5,360.5z M-445.3,345.5h-3.5
	c-1,0-1.7,0.8-1.7,1.7c0,0.9,0.8,1.7,1.7,1.7h3.5c1,0,1.7-0.8,1.7-1.7C-443.6,346.3-444.4,345.5-445.3,345.5z M-425.5,345.5h-3.5
	c-1,0-1.7,0.8-1.7,1.7c0,0.9,0.8,1.7,1.7,1.7h3.5c1,0,1.7-0.8,1.7-1.7C-423.9,346.3-424.7,345.5-425.5,345.5z M-435.4,345.5h-3.5
	c-1,0-1.7,0.8-1.7,1.7c0,0.9,0.8,1.7,1.7,1.7h3.5c1,0,1.7-0.8,1.7-1.7C-433.8,346.3-434.5,345.5-435.4,345.5z M-435.4,338.2h-3.5
	c-1,0-1.7,0.8-1.7,1.7c0,1,0.8,1.7,1.7,1.7h3.5c1,0,1.7-0.8,1.7-1.7S-434.5,338.2-435.4,338.2z M-435.4,353h-3.5
	c-1,0-1.7,0.8-1.7,1.7c0,1,0.8,1.7,1.7,1.7h3.5c1,0,1.7-0.8,1.7-1.7C-433.8,353.7-434.5,353-435.4,353z M-445.3,338.2h-3.5
	c-1,0-1.7,0.8-1.7,1.7c0,1,0.8,1.7,1.7,1.7h3.5c1,0,1.7-0.8,1.7-1.7S-444.4,338.2-445.3,338.2z M-425.5,338.2h-3.5
	c-1,0-1.7,0.8-1.7,1.7c0,1,0.8,1.7,1.7,1.7h3.5c1,0,1.7-0.8,1.7-1.7S-424.7,338.2-425.5,338.2z M-435.4,360.5h-3.5
	c-1,0-1.7,0.8-1.7,1.7c0,1,0.8,1.7,1.7,1.7h3.5c1,0,1.7-0.8,1.7-1.7C-433.8,361.3-434.5,360.5-435.4,360.5z M-435.4,367.7h-3.5
	c-1,0-1.7,0.8-1.7,1.7c0,1,0.8,1.7,1.7,1.7h3.5c1,0,1.7-0.8,1.7-1.7C-433.8,368.5-434.5,367.7-435.4,367.7z"/>
<rect x="-473.1" y="317" fill="none" width="72" height="72"/>
</svg>
