<?xml version="1.0" encoding="utf-8"?>
<!-- Generator: Adobe Illustrator 19.1.0, SVG Export Plug-In . SVG Version: 6.00 Build 0)  -->
<svg version="1.1" id="Layer_1" xmlns="http://www.w3.org/2000/svg" xmlns:xlink="http://www.w3.org/1999/xlink" x="0px" y="0px"
     viewBox="0 0 72 72" style="enable-background:new 0 0 72 72;" xml:space="preserve">
<rect style="fill:none;" width="72" height="72"/>
<path d="M36,4C18.3,4,4,18.3,4,36s14.3,32,32,32s32-14.3,32-32S53.7,4,36,4z M54.607,27.612c0,0.375,0,0.75,0,1.218
	c0,11.992-9.088,25.858-25.858,25.858c-5.153,0-9.931-1.499-13.96-4.122c0.75,0.094,1.405,0.094,2.155,0.094
	c4.216,0,8.151-1.405,11.243-3.841c-3.935-0.094-7.308-2.717-8.526-6.277c0.562,0.094,1.124,0.187,1.686,0.187
	c0.843,0,1.593-0.094,2.436-0.281c-4.122-0.843-7.308-4.497-7.308-8.9v-0.094c1.218,0.656,2.623,1.124,4.122,1.124
	c-2.436-1.593-4.029-4.403-4.029-7.589c0-1.686,0.468-3.185,1.218-4.591c4.497,5.528,11.149,9.088,18.738,9.463
	c-0.187-0.656-0.281-1.312-0.281-2.061c0-5.059,4.029-9.088,9.088-9.088c2.623,0,4.966,1.124,6.652,2.904
	c2.061-0.375,4.029-1.124,5.809-2.249c-0.656,2.155-2.155,3.935-4.029,5.059c1.874-0.187,3.56-0.75,5.247-1.405
	C57.886,24.708,56.387,26.3,54.607,27.612z"/>
</svg>
